<svg version="1.2" xmlns="http://www.w3.org/2000/svg" viewBox="0 0 266 68" width="266" height="68">
	<title>logo-svg</title>
	<style>
		.s0 { fill: #ff7020 } 
	</style>
	<path id="Layer" fill-rule="evenodd" class="s0" d="m206.9 6.3c1 0.1 1.6 0.4 2.2 1.2l0.4 0.5v3.3l0.1 3.3h2.7l0.1-3.3 0.1-3.3 0.3-0.5c0.6-0.9 1.4-1.2 2.5-1.2 1 0.1 1.6 0.4 2.2 1.3 0.3 0.4 0.3 0.5 0.4 3.7v3.3h2.8l0.1-3.3v-3.3l0.4-0.5c0.6-0.9 1.4-1.2 2.4-1.2 1 0.1 1.7 0.4 2.2 1.2l0.4 0.5v6.9c0 6.7 0 6.8-0.3 7.7-1 3.1-3.8 5.5-7.1 5.8l-0.9 0.1v15.7l-0.1 15.8-0.3 0.4c-0.2 0.3-0.6 0.7-0.8 0.9-0.5 0.3-0.7 0.3-1.6 0.3-0.9 0-1 0-1.5-0.3-0.3-0.2-0.7-0.6-0.9-0.9l-0.2-0.5-0.1-15.7-0.1-15.7-0.8-0.1c-3.2-0.3-5.8-2.4-7.1-5.6l-0.3-0.8v-14l0.4-0.5c0.2-0.3 0.6-0.7 1-0.9 0.4-0.3 0.7-0.3 1.4-0.3zm13.7 13.8h-11v0.4c0 0.8 0.7 1.6 1.6 2.1 0.4 0.3 0.6 0.3 3.9 0.3 3.2 0 3.5 0 4-0.3 0.9-0.5 1.5-1.3 1.5-2.1z"/>
	<path id="Layer" fill-rule="evenodd" class="s0" d="m234 6.3c1 0.1 1.6 0.4 2.2 1.2l0.3 0.5 0.1 14.5 0.1 14.5 1.1 0.3c3.5 1 5.8 3.4 6.8 7 0.3 0.9 0.3 1.4 0.3 3.6 0 2.2 0 2.7-0.3 3.7-1.3 5-4.1 8.4-8.1 9.7-0.7 0.3-1.1 0.3-2.6 0.3-1.5 0-1.9 0-2.7-0.3-4-1.3-6.8-4.7-8.1-9.7-0.2-1-0.3-1.5-0.3-3.7 0-2.9 0.2-3.8 1.2-5.8 1.2-2.3 3.2-4 6-4.8l1.1-0.3 0.1-29 0.4-0.5c0.2-0.3 0.6-0.7 1-0.9 0.4-0.3 0.7-0.3 1.4-0.3zm-1.4 36.1c-1.8 0.2-3.1 1.1-3.8 2.6-0.3 0.8-0.4 0.8-0.4 2.9 0 1.9 0.1 2.3 0.3 3.1 0.8 2.3 2 4 3.5 4.7 0.8 0.5 2.5 0.5 3.4 0 1.4-0.7 2.7-2.5 3.4-4.6 0.3-1.2 0.5-4 0.2-5.1-0.3-1.7-1.3-2.8-2.8-3.3-0.8-0.2-3.8-0.3-3.8-0.3z"/>
	<path id="Layer" fill-rule="evenodd" class="s0" d="m259.1 6.3c1 0.1 1.6 0.4 2.2 1.2l0.3 0.5v52l-0.3 0.4c-0.2 0.3-0.6 0.7-0.8 0.9-0.5 0.3-0.7 0.3-1.6 0.3-0.9 0-1 0-1.5-0.4-0.3-0.2-0.7-0.6-0.9-0.9l-0.3-0.6v-20.1h-4.3c-4.9 0-5.2 0-6-0.9-0.9-0.9-1-1.4-0.8-4.8 0.5-9.3 2.8-16.8 6.8-22 1.6-2.1 4.2-4.5 5.9-5.4 0.3-0.2 0.6-0.2 1.3-0.2zm-3 9.2c-0.3 0-2.3 4-3.1 6.1-1.1 3.2-2 7.5-2.2 11.1l-0.1 1.3h5.5v-9.2c0-5.1 0-9.3-0.1-9.3z"/>
	<path id="Layer" class="s0" d="m18.2 53.4q-1.9 0-2.8-1-1-1-1-2.9v-13.9l1.6 4.3-11.4-16.1q-0.6-1-0.5-2.1 0.1-1.2 0.9-2.1 0.9-0.9 2.5-0.9 1.1 0 2 0.6 1 0.6 1.9 1.8l7.6 11.1h-1.5l7.7-11.1q0.9-1.3 1.8-1.8 0.9-0.6 2.1-0.6 1.5 0 2.4 0.8 0.8 0.8 0.9 2 0 1.2-0.8 2.4l-11.2 16 1.5-4.3v13.9q0 3.9-3.7 3.9zm22.9 0.1q-3 0-5-1.1-2-1.1-2.9-3.3-0.9-2.2-0.9-5.6v-10.8q0-1.8 0.9-2.7 0.9-1 2.7-1 1.7 0 2.7 1 0.9 0.9 0.9 2.7v11q0 2.1 0.9 3.2 0.8 1 2.7 1 2.1 0 3.4-1.4 1.3-1.5 1.3-3.9v-9.9q0-1.8 0.9-2.7 1-1 2.7-1 1.8 0 2.7 1 1 0.9 1 2.7v17q0 3.7-3.5 3.7-1.8 0-2.7-0.9-0.9-1-0.9-2.8v-3.2l0.7 1.9q-1 2.4-3 3.8-2 1.3-4.6 1.3zm23.3-0.1q-1.8 0-2.7-0.9-0.9-1-0.9-2.8v-17q0-1.8 0.9-2.7 0.9-1 2.6-1 1.8 0 2.7 1 0.9 0.9 0.9 2.7v3.1l-0.6-2q1-2.2 3-3.5 2-1.3 4.8-1.3 2.7 0 4.5 1.2 1.9 1.3 2.6 4h-0.6q1-2.4 3.2-3.8 2.2-1.4 5-1.4 2.7 0 4.5 1.1 1.8 1 2.6 3.2 0.9 2.2 0.9 5.5v10.9q0 1.8-1 2.8-0.9 0.9-2.6 0.9-1.8 0-2.8-0.9-0.9-1-0.9-2.8v-10.6q0-2.4-0.7-3.4-0.8-1.1-2.5-1.1-2.1 0-3.2 1.4-1.2 1.4-1.2 4.1v9.6q0 1.8-1 2.8-0.9 0.9-2.6 0.9-1.7 0-2.7-0.9-0.9-1-0.9-2.8v-10.6q0-2.4-0.8-3.4-0.7-1.1-2.5-1.1-2.1 0-3.2 1.4-1.2 1.4-1.2 4.1v9.6q0 3.7-3.6 3.7zm51.3 0q-1.8 0-2.8-1-0.9-1-0.9-2.9v-13.9l1.5 4.3-11.3-16.1q-0.7-1-0.6-2.1 0.1-1.2 1-2.1 0.8-0.9 2.4-0.9 1.2 0 2.1 0.6 0.9 0.6 1.8 1.8l7.7 11.1h-1.6l7.7-11.1q0.9-1.3 1.8-1.8 0.9-0.6 2.1-0.6 1.5 0 2.4 0.8 0.9 0.8 0.9 2 0.1 1.2-0.8 2.4l-11.2 16 1.5-4.3v13.9q0 3.9-3.7 3.9zm22.9 0.1q-3 0-4.9-1.1-2-1.1-3-3.3-0.9-2.2-0.9-5.6v-10.8q0-1.8 0.9-2.7 1-1 2.7-1 1.7 0 2.7 1 1 0.9 1 2.7v11q0 2.1 0.8 3.2 0.9 1 2.8 1 2 0 3.3-1.4 1.4-1.5 1.4-3.9v-9.9q0-1.8 0.9-2.7 0.9-1 2.7-1 1.7 0 2.7 1 0.9 0.9 0.9 2.7v17q0 3.7-3.5 3.7-1.7 0-2.6-0.9-0.9-1-0.9-2.8v-3.2l0.7 1.9q-1.1 2.4-3 3.8-2 1.3-4.7 1.3zm23.4-0.1q-1.8 0-2.8-0.9-0.9-1-0.9-2.8v-17q0-1.8 0.9-2.7 1-1 2.7-1 1.7 0 2.6 1 0.9 0.9 0.9 2.7v3.1l-0.5-2q1-2.2 3-3.5 2-1.3 4.7-1.3 2.8 0 4.6 1.2 1.8 1.3 2.6 4h-0.7q1.1-2.4 3.2-3.8 2.2-1.4 5.1-1.4 2.7 0 4.4 1.1 1.8 1 2.7 3.2 0.8 2.2 0.8 5.5v10.9q0 1.8-0.9 2.8-0.9 0.9-2.7 0.9-1.8 0-2.7-0.9-0.9-1-0.9-2.8v-10.6q0-2.4-0.8-3.4-0.7-1.1-2.5-1.1-2 0-3.2 1.4-1.2 1.4-1.2 4.1v9.6q0 1.8-0.9 2.8-0.9 0.9-2.7 0.9-1.7 0-2.6-0.9-1-1-1-2.8v-10.6q0-2.4-0.8-3.4-0.7-1.1-2.5-1.1-2 0-3.2 1.4-1.1 1.4-1.1 4.1v9.6q0 3.7-3.6 3.7z"/>
</svg>