<svg>
<symbol id="logo" version="1.2" xmlns="http://www.w3.org/2000/svg" viewBox="0 0 266 68">
	<title>logo-svg</title>
	<style>
		.s0 { fill: #ff7020 } 
	</style>
	<path id="Layer" fill-rule="evenodd" class="s0" d="m206.9 6.3c1 0.1 1.6 0.4 2.2 1.2l0.4 0.5v3.3l0.1 3.3h2.7l0.1-3.3 0.1-3.3 0.3-0.5c0.6-0.9 1.4-1.2 2.5-1.2 1 0.1 1.6 0.4 2.2 1.3 0.3 0.4 0.3 0.5 0.4 3.7v3.3h2.8l0.1-3.3v-3.3l0.4-0.5c0.6-0.9 1.4-1.2 2.4-1.2 1 0.1 1.7 0.4 2.2 1.2l0.4 0.5v6.9c0 6.7 0 6.8-0.3 7.7-1 3.1-3.8 5.5-7.1 5.8l-0.9 0.1v15.7l-0.1 15.8-0.3 0.4c-0.2 0.3-0.6 0.7-0.8 0.9-0.5 0.3-0.7 0.3-1.6 0.3-0.9 0-1 0-1.5-0.3-0.3-0.2-0.7-0.6-0.9-0.9l-0.2-0.5-0.1-15.7-0.1-15.7-0.8-0.1c-3.2-0.3-5.8-2.4-7.1-5.6l-0.3-0.8v-14l0.4-0.5c0.2-0.3 0.6-0.7 1-0.9 0.4-0.3 0.7-0.3 1.4-0.3zm13.7 13.8h-11v0.4c0 0.8 0.7 1.6 1.6 2.1 0.4 0.3 0.6 0.3 3.9 0.3 3.2 0 3.5 0 4-0.3 0.9-0.5 1.5-1.3 1.5-2.1z"/>
	<path id="Layer" fill-rule="evenodd" class="s0" d="m234 6.3c1 0.1 1.6 0.4 2.2 1.2l0.3 0.5 0.1 14.5 0.1 14.5 1.1 0.3c3.5 1 5.8 3.4 6.8 7 0.3 0.9 0.3 1.4 0.3 3.6 0 2.2 0 2.7-0.3 3.7-1.3 5-4.1 8.4-8.1 9.7-0.7 0.3-1.1 0.3-2.6 0.3-1.5 0-1.9 0-2.7-0.3-4-1.3-6.8-4.7-8.1-9.7-0.2-1-0.3-1.5-0.3-3.7 0-2.9 0.2-3.8 1.2-5.8 1.2-2.3 3.2-4 6-4.8l1.1-0.3 0.1-29 0.4-0.5c0.2-0.3 0.6-0.7 1-0.9 0.4-0.3 0.7-0.3 1.4-0.3zm-1.4 36.1c-1.8 0.2-3.1 1.1-3.8 2.6-0.3 0.8-0.4 0.8-0.4 2.9 0 1.9 0.1 2.3 0.3 3.1 0.8 2.3 2 4 3.5 4.7 0.8 0.5 2.5 0.5 3.4 0 1.4-0.7 2.7-2.5 3.4-4.6 0.3-1.2 0.5-4 0.2-5.1-0.3-1.7-1.3-2.8-2.8-3.3-0.8-0.2-3.8-0.3-3.8-0.3z"/>
	<path id="Layer" fill-rule="evenodd" class="s0" d="m259.1 6.3c1 0.1 1.6 0.4 2.2 1.2l0.3 0.5v52l-0.3 0.4c-0.2 0.3-0.6 0.7-0.8 0.9-0.5 0.3-0.7 0.3-1.6 0.3-0.9 0-1 0-1.5-0.4-0.3-0.2-0.7-0.6-0.9-0.9l-0.3-0.6v-20.1h-4.3c-4.9 0-5.2 0-6-0.9-0.9-0.9-1-1.4-0.8-4.8 0.5-9.3 2.8-16.8 6.8-22 1.6-2.1 4.2-4.5 5.9-5.4 0.3-0.2 0.6-0.2 1.3-0.2zm-3 9.2c-0.3 0-2.3 4-3.1 6.1-1.1 3.2-2 7.5-2.2 11.1l-0.1 1.3h5.5v-9.2c0-5.1 0-9.3-0.1-9.3z"/>
	<path id="Layer" class="s0" d="m18.2 53.4q-1.9 0-2.8-1-1-1-1-2.9v-13.9l1.6 4.3-11.4-16.1q-0.6-1-0.5-2.1 0.1-1.2 0.9-2.1 0.9-0.9 2.5-0.9 1.1 0 2 0.6 1 0.6 1.9 1.8l7.6 11.1h-1.5l7.7-11.1q0.9-1.3 1.8-1.8 0.9-0.6 2.1-0.6 1.5 0 2.4 0.8 0.8 0.8 0.9 2 0 1.2-0.8 2.4l-11.2 16 1.5-4.3v13.9q0 3.9-3.7 3.9zm22.9 0.1q-3 0-5-1.1-2-1.1-2.9-3.3-0.9-2.2-0.9-5.6v-10.8q0-1.8 0.9-2.7 0.9-1 2.7-1 1.7 0 2.7 1 0.9 0.9 0.9 2.7v11q0 2.1 0.9 3.2 0.8 1 2.7 1 2.1 0 3.4-1.4 1.3-1.5 1.3-3.9v-9.9q0-1.8 0.9-2.7 1-1 2.7-1 1.8 0 2.7 1 1 0.9 1 2.7v17q0 3.7-3.5 3.7-1.8 0-2.7-0.9-0.9-1-0.9-2.8v-3.2l0.7 1.9q-1 2.4-3 3.8-2 1.3-4.6 1.3zm23.3-0.1q-1.8 0-2.7-0.9-0.9-1-0.9-2.8v-17q0-1.8 0.9-2.7 0.9-1 2.6-1 1.8 0 2.7 1 0.9 0.9 0.9 2.7v3.1l-0.6-2q1-2.2 3-3.5 2-1.3 4.8-1.3 2.7 0 4.5 1.2 1.9 1.3 2.6 4h-0.6q1-2.4 3.2-3.8 2.2-1.4 5-1.4 2.7 0 4.5 1.1 1.8 1 2.6 3.2 0.9 2.2 0.9 5.5v10.9q0 1.8-1 2.8-0.9 0.9-2.6 0.9-1.8 0-2.8-0.9-0.9-1-0.9-2.8v-10.6q0-2.4-0.7-3.4-0.8-1.1-2.5-1.1-2.1 0-3.2 1.4-1.2 1.4-1.2 4.1v9.6q0 1.8-1 2.8-0.9 0.9-2.6 0.9-1.7 0-2.7-0.9-0.9-1-0.9-2.8v-10.6q0-2.4-0.8-3.4-0.7-1.1-2.5-1.1-2.1 0-3.2 1.4-1.2 1.4-1.2 4.1v9.6q0 3.7-3.6 3.7zm51.3 0q-1.8 0-2.8-1-0.9-1-0.9-2.9v-13.9l1.5 4.3-11.3-16.1q-0.7-1-0.6-2.1 0.1-1.2 1-2.1 0.8-0.9 2.4-0.9 1.2 0 2.1 0.6 0.9 0.6 1.8 1.8l7.7 11.1h-1.6l7.7-11.1q0.9-1.3 1.8-1.8 0.9-0.6 2.1-0.6 1.5 0 2.4 0.8 0.9 0.8 0.9 2 0.1 1.2-0.8 2.4l-11.2 16 1.5-4.3v13.9q0 3.9-3.7 3.9zm22.9 0.1q-3 0-4.9-1.1-2-1.1-3-3.3-0.9-2.2-0.9-5.6v-10.8q0-1.8 0.9-2.7 1-1 2.7-1 1.7 0 2.7 1 1 0.9 1 2.7v11q0 2.1 0.8 3.2 0.9 1 2.8 1 2 0 3.3-1.4 1.4-1.5 1.4-3.9v-9.9q0-1.8 0.9-2.7 0.9-1 2.7-1 1.7 0 2.7 1 0.9 0.9 0.9 2.7v17q0 3.7-3.5 3.7-1.7 0-2.6-0.9-0.9-1-0.9-2.8v-3.2l0.7 1.9q-1.1 2.4-3 3.8-2 1.3-4.7 1.3zm23.4-0.1q-1.8 0-2.8-0.9-0.9-1-0.9-2.8v-17q0-1.8 0.9-2.7 1-1 2.7-1 1.7 0 2.6 1 0.9 0.9 0.9 2.7v3.1l-0.5-2q1-2.2 3-3.5 2-1.3 4.7-1.3 2.8 0 4.6 1.2 1.8 1.3 2.6 4h-0.7q1.1-2.4 3.2-3.8 2.2-1.4 5.1-1.4 2.7 0 4.4 1.1 1.8 1 2.7 3.2 0.8 2.2 0.8 5.5v10.9q0 1.8-0.9 2.8-0.9 0.9-2.7 0.9-1.8 0-2.7-0.9-0.9-1-0.9-2.8v-10.6q0-2.4-0.8-3.4-0.7-1.1-2.5-1.1-2 0-3.2 1.4-1.2 1.4-1.2 4.1v9.6q0 1.8-0.9 2.8-0.9 0.9-2.7 0.9-1.7 0-2.6-0.9-1-1-1-2.8v-10.6q0-2.4-0.8-3.4-0.7-1.1-2.5-1.1-2 0-3.2 1.4-1.1 1.4-1.1 4.1v9.6q0 3.7-3.6 3.7z"/>
</symbol>

<symbol id="vk" width="36" height="36" viewBox="0 0 36 36" fill="#ff7020" xmlns="http://www.w3.org/2000/svg">
<g clip-path="url(#clip0_57_2464)">
<path d="M18 0C8.05875 0 0 8.05875 0 18C0 27.9412 8.05875 36 18 36C27.9412 36 36 27.9412 36 18C36 8.05875 27.9412 0 18 0ZM24.9225 20.3081C24.9225 20.3081 26.5144 21.8794 26.9062 22.6087C26.9175 22.6237 26.9231 22.6387 26.9269 22.6462C27.0862 22.9144 27.1237 23.1225 27.045 23.2781C26.9137 23.5369 26.4637 23.6644 26.31 23.6756H23.4975C23.3025 23.6756 22.8937 23.625 22.3987 23.2837C22.0181 23.0175 21.6431 22.5806 21.2775 22.155C20.7319 21.5212 20.2594 20.9738 19.7831 20.9738C19.7226 20.9736 19.6625 20.9831 19.605 21.0019C19.245 21.1181 18.7838 21.6319 18.7838 23.0006C18.7838 23.4281 18.4462 23.6737 18.2081 23.6737H16.92C16.4812 23.6737 14.1956 23.52 12.1706 21.3844C9.69187 18.7687 7.46062 13.5225 7.44187 13.4737C7.30125 13.1344 7.59187 12.9525 7.90875 12.9525H10.7494C11.1281 12.9525 11.2519 13.1831 11.3381 13.3875C11.4394 13.6256 11.8106 14.5725 12.42 15.6375C13.4081 17.3737 14.0138 18.0787 14.4994 18.0787C14.5904 18.0777 14.6799 18.0545 14.76 18.0112C15.3937 17.6587 15.2756 15.3994 15.2475 14.9306C15.2475 14.8425 15.2456 13.92 14.9212 13.4775C14.6887 13.1569 14.2931 13.035 14.0531 12.99C14.1503 12.856 14.2782 12.7473 14.4262 12.6731C14.8612 12.4556 15.645 12.4237 16.4231 12.4237H16.8563C17.7 12.435 17.9175 12.4894 18.2231 12.5662C18.8419 12.7144 18.855 13.1137 18.8006 14.4806C18.7838 14.8687 18.7669 15.3075 18.7669 15.825C18.7669 15.9375 18.7612 16.0575 18.7612 16.185C18.7425 16.8806 18.72 17.67 19.2112 17.9944C19.2753 18.0346 19.3494 18.056 19.425 18.0562C19.5956 18.0562 20.1094 18.0562 21.5006 15.6694C21.9297 14.9011 22.3025 14.1028 22.6162 13.2806C22.6444 13.2319 22.7269 13.0819 22.8244 13.0237C22.8963 12.9871 22.9761 12.9684 23.0569 12.9694H26.3962C26.76 12.9694 27.0094 13.0237 27.0562 13.1644C27.1387 13.3875 27.0412 14.0681 25.5169 16.1325L24.8362 17.0306C23.4544 18.8419 23.4544 18.9338 24.9225 20.3081Z" fill="#FF7020"/>
</g>
<defs>
<clipPath id="clip0_57_2464">
<rect width="36" height="36" fill="white"/>
</clipPath>
</defs>
</symbol>

<symbol id="telegram" width="36" height="36" viewBox="0 0 36 36" fill="#ff7020" xmlns="http://www.w3.org/2000/svg">
<path d="M36 18C36 22.7739 34.1036 27.3523 30.7279 30.7279C27.3523 34.1036 22.7739 36 18 36C13.2261 36 8.64773 34.1036 5.27208 30.7279C1.89642 27.3523 0 22.7739 0 18C0 13.2261 1.89642 8.64773 5.27208 5.27208C8.64773 1.89642 13.2261 0 18 0C22.7739 0 27.3523 1.89642 30.7279 5.27208C34.1036 8.64773 36 13.2261 36 18ZM18.6458 13.2885C16.8952 14.0175 13.3942 15.525 8.14725 17.811C7.29675 18.1485 6.849 18.4815 6.8085 18.8055C6.741 19.3522 7.42725 19.5683 8.361 19.863L8.75475 19.9868C9.67275 20.286 10.9102 20.6348 11.5515 20.6483C12.1365 20.6618 12.7867 20.4233 13.5045 19.9283C18.4072 16.6185 20.9385 14.9467 21.096 14.9107C21.2085 14.8837 21.366 14.8523 21.4695 14.9468C21.5752 15.039 21.564 15.2168 21.5528 15.264C21.4853 15.5542 18.792 18.0562 17.3993 19.3522C16.965 19.7572 16.6567 20.043 16.5938 20.1082C16.455 20.25 16.314 20.3895 16.1707 20.5268C15.3157 21.3503 14.6768 21.9668 16.2045 22.9748C16.9403 23.4608 17.5298 23.859 18.117 24.2595C18.756 24.696 19.395 25.1303 20.223 25.6748C20.4322 25.8098 20.6348 25.956 20.8305 26.0955C21.5753 26.6265 22.248 27.1035 23.0737 27.027C23.5553 26.982 24.0525 26.532 24.3045 25.182C24.9007 21.9938 26.073 15.0885 26.343 12.2423C26.3595 12.0056 26.3497 11.7679 26.3137 11.5335C26.2926 11.3443 26.201 11.17 26.0573 11.0452C25.8525 10.9039 25.6085 10.8307 25.3597 10.836C24.6847 10.8472 23.643 11.2095 18.6458 13.2885Z" fill="#FF7020"/>
</symbol>

<symbol id="pinterest" width="36" height="37" viewBox="0 0 36 37" fill="#ff7020" xmlns="http://www.w3.org/2000/svg">
<path d="M18.004 0.71582C8.06162 0.71582 0 8.77384 0 18.7118C0 26.0789 4.4367 32.4096 10.7783 35.1974C10.7301 33.9441 10.7703 32.4337 11.0918 31.068C11.4374 29.6058 13.4066 21.2586 13.4066 21.2586C13.4066 21.2586 12.8279 20.1097 12.8279 18.4145C12.8279 15.7473 14.3711 13.7549 16.3001 13.7549C17.9397 13.7549 18.7274 14.9841 18.7274 16.4543C18.7274 18.1012 17.6745 20.5596 17.136 22.8412C16.6859 24.7533 18.0924 26.3039 19.9812 26.3039C23.3891 26.3039 25.6879 21.9254 25.6879 16.7355C25.6879 12.7908 23.0275 9.84235 18.1969 9.84235C12.7395 9.84235 9.33155 13.9156 9.33155 18.4628C9.33155 20.0294 9.79772 21.138 10.5211 21.9896C10.8506 22.3833 10.8989 22.544 10.7783 22.9939C10.6899 23.3233 10.497 24.1186 10.4086 24.44C10.288 24.8979 9.91829 25.0586 9.50837 24.8899C6.99263 23.8615 5.81916 21.1139 5.81916 18.0129C5.81916 12.9033 10.1353 6.7734 18.6872 6.7734C25.5593 6.7734 30.0844 11.7464 30.0844 17.0809C30.0844 24.1427 26.1541 29.413 20.367 29.413C18.422 29.413 16.5975 28.3605 15.9705 27.1715C15.9705 27.1715 14.9257 31.317 14.7006 32.1204C14.3228 33.5103 13.5754 34.8921 12.8922 35.9767C14.5494 36.4654 16.2681 36.7143 17.996 36.7158C27.9384 36.7158 36 28.6578 36 18.7198C36 8.78188 27.9464 0.71582 18.004 0.71582Z" fill="#FF7020"/>
</symbol>


</svg>